<svg width="228" height="372" viewBox="0 0 228 372" fill="none" xmlns="http://www.w3.org/2000/svg">
<g clip-path="url(#clip0_3139_563)">
<path d="M120.293 172.007C121.248 172.007 122.322 172.365 123.515 173.081C124.709 173.797 125.544 188.822 126.021 191.209L180.082 343.303C180.32 344.974 181.036 345.69 182.23 345.452C183.423 345.452 184.02 344.616 184.02 342.945L191.18 212.69C191.419 206.007 190.345 200.875 187.958 197.295C185.571 193.953 181.394 191.805 175.427 190.851L170.773 190.135C167.67 189.896 166.119 188.464 166.119 185.838C166.119 183.213 167.909 181.9 171.489 181.9H222.685C226.266 181.9 228.056 183.213 228.056 185.838C228.056 188.464 226.504 189.896 223.401 190.135L218.747 190.851C212.542 191.805 208.365 193.953 206.217 197.295C203.83 200.875 202.517 206.007 202.279 212.69L195.118 348.674C194.88 353.686 195.596 357.027 197.266 358.698C198.937 360.369 202.517 361.682 208.007 362.636L216.241 364.068C219.344 364.784 220.895 366.216 220.895 368.364C220.895 370.99 219.105 372.303 215.525 372.303H172.563C165.164 372.303 160.629 368.722 158.959 361.562L115.639 250.281C115.162 248.61 114.446 247.775 113.491 247.775C112.297 247.775 111.581 248.61 111.343 250.281L66.2328 363.352C64.8007 369.319 60.9819 372.303 54.7763 372.303H12.5305C8.95038 372.303 7.16031 370.99 7.16031 368.364C7.16031 366.216 8.7117 364.784 11.8145 364.068L20.0489 362.636C25.0611 361.682 28.4025 360.369 30.0733 358.698C31.744 357.027 32.46 353.686 32.2214 348.674L25.0611 205.529C24.8224 200.517 23.987 197.176 22.555 195.505C21.1229 193.834 17.9008 192.521 12.8886 191.567L4.65422 190.135C1.55142 189.419 0 187.986 0 185.838C0 183.213 1.79007 181.9 5.37022 181.9H70.171C73.7511 181.9 75.5412 183.213 75.5412 185.838C75.5412 187.986 73.9898 189.419 70.887 190.135L62.6527 191.567C57.6404 192.521 54.299 193.834 52.6282 195.505C50.9575 197.176 50.2414 200.517 50.4801 205.529L56.5664 342.945C56.5664 344.616 57.1631 345.452 58.3565 345.452C59.3112 345.69 60.0272 345.093 60.5046 343.661L114.923 191.209C115.4 188.822 116.236 173.797 117.429 173.081C118.384 172.365 119.338 172.007 120.293 172.007Z" fill="white"/>
<path d="M120.293 200.296C121.248 200.296 122.322 199.938 123.515 199.222C124.709 198.506 125.544 183.481 126.021 181.094L180.082 28.9992C180.32 27.3285 181.036 26.6125 182.23 26.8511C183.423 26.8511 184.02 27.6865 184.02 29.3572L191.18 159.613C191.419 166.296 190.345 171.428 187.958 175.008C185.571 178.349 181.394 180.497 175.427 181.452L170.773 182.168C167.67 182.407 166.119 183.839 166.119 186.464C166.119 189.09 167.909 190.402 171.489 190.402H222.685C226.266 190.402 228.056 189.09 228.056 186.464C228.056 183.839 226.504 182.407 223.401 182.168L218.747 181.452C212.542 180.497 208.365 178.349 206.217 175.008C203.83 171.428 202.517 166.296 202.279 159.613L195.118 23.629C194.88 18.6168 195.596 15.2753 197.266 13.6046C198.937 11.9338 202.517 10.6211 208.007 9.66641L216.241 8.23435C219.344 7.51831 220.895 6.08625 220.895 3.93816C220.895 1.31272 219.105 0 215.525 0H172.563C165.164 0 160.629 3.58015 158.959 10.7404L115.639 122.022C115.162 123.692 114.446 124.528 113.491 124.528C112.297 124.528 111.581 123.692 111.343 122.022L66.2328 8.95037C64.8007 2.98346 60.9819 0 54.7763 0H12.5305C8.95038 0 7.16031 1.31272 7.16031 3.93816C7.16031 6.08625 8.7117 7.51831 11.8145 8.23435L20.0489 9.66641C25.0611 10.6211 28.4025 11.9338 30.0733 13.6046C31.744 15.2753 32.46 18.6168 32.2214 23.629L25.0611 166.773C24.8224 171.786 23.987 175.127 22.555 176.798C21.1229 178.469 17.9008 179.781 12.8886 180.736L4.65422 182.168C1.55142 182.884 0 184.316 0 186.464C0 189.09 1.79007 190.402 5.37022 190.402H70.171C73.7511 190.402 75.5412 189.09 75.5412 186.464C75.5412 184.316 73.9898 182.884 70.887 182.168L62.6527 180.736C57.6404 179.781 54.299 178.469 52.6282 176.798C50.9575 175.127 50.2414 171.786 50.4801 166.773L56.5664 29.3572C56.5664 27.6865 57.1631 26.8511 58.3565 26.8511C59.3112 26.6125 60.0272 27.2091 60.5046 28.6412L114.923 181.094C115.4 183.481 116.236 198.506 117.429 199.222C118.384 199.938 119.338 200.296 120.293 200.296Z" fill="white"/>
</g>
<defs>
<clipPath id="clip0_3139_563">
<rect width="228" height="372" fill="white"/>
</clipPath>
</defs>
</svg>
