<svg width="857" height="140" viewBox="0 0 857 140" fill="none" xmlns="http://www.w3.org/2000/svg">
<g clip-path="url(#clip0_3139_551)">
<path d="M56.1171 136.098C55.62 136.098 55.0607 135.912 54.4392 135.539C53.8177 135.166 53.3827 134.358 53.1342 133.115L24.9824 18.83C24.8581 17.96 24.4852 17.5871 23.8638 17.7114C23.2423 17.7114 22.9316 18.1464 22.9316 19.0164L19.2029 121.929C19.0786 125.409 19.6379 128.081 20.8808 129.946C22.1237 131.686 24.2988 132.804 27.406 133.301L29.8297 133.674C31.4455 133.799 32.2534 134.544 32.2534 135.912C32.2534 137.279 31.3212 137.962 29.4568 137.962H2.79653C0.932178 137.962 0 137.279 0 135.912C0 134.544 0.807888 133.799 2.42366 133.674L4.84733 133.301C8.07888 132.804 10.254 131.686 11.3726 129.946C12.6155 128.081 13.2991 125.409 13.4234 121.929L17.1521 16.0335C17.2764 13.4234 16.9035 11.6833 16.0335 10.8133C15.1634 9.94323 13.2991 9.25963 10.4404 8.76247L6.15238 8.01673C4.5366 7.64385 3.72871 6.89811 3.72871 5.7795C3.72871 4.4123 4.66089 3.72871 6.52525 3.72871H28.8975C32.7505 3.72871 35.112 5.59306 35.9821 9.32177L58.5408 102.353C58.7894 103.223 59.1622 103.658 59.6594 103.658C60.2808 103.658 60.6537 103.223 60.778 102.353L84.2689 8.38959C85.0146 5.28234 87.0033 3.72871 90.2348 3.72871H112.234C114.099 3.72871 115.031 4.4123 115.031 5.7795C115.031 6.89811 114.223 7.64385 112.607 8.01673L108.319 8.76247C105.709 9.25963 103.969 9.94323 103.099 10.8133C102.229 11.6833 101.856 13.4234 101.98 16.0335L105.709 125.658C105.833 128.268 106.268 130.008 107.014 130.878C107.76 131.748 109.438 132.431 112.048 132.929L116.336 133.674C117.952 134.047 118.759 134.793 118.759 135.912C118.759 137.279 117.827 137.962 115.963 137.962H82.2181C80.3538 137.962 79.4216 137.279 79.4216 135.912C79.4216 134.793 80.2295 134.047 81.8452 133.674L86.1333 132.929C88.7434 132.431 90.4834 131.748 91.3534 130.878C92.2235 130.008 92.5964 128.268 92.4721 125.658L89.3027 19.0164C89.3027 18.1464 88.9919 17.7114 88.3705 17.7114C87.8733 17.5871 87.5005 17.8978 87.2519 18.6436L58.9137 133.115C58.6651 134.358 58.2301 135.166 57.6086 135.539C57.1114 135.912 56.6143 136.098 56.1171 136.098Z" fill="black"/>
<path d="M139.878 25.1688C137.268 25.1688 135.03 24.2366 133.166 22.3723C131.426 20.5079 130.556 18.1464 130.556 15.2877C130.556 12.429 131.426 10.1297 133.166 8.38959C135.03 6.52524 137.268 5.59306 139.878 5.59306C142.488 5.59306 144.663 6.52524 146.403 8.38959C148.143 10.1297 149.013 12.429 149.013 15.2877C149.013 18.1464 148.143 20.5079 146.403 22.3723C144.663 24.2366 142.488 25.1688 139.878 25.1688ZM124.217 137.962C122.353 137.962 121.421 137.279 121.421 135.912C121.421 134.793 122.228 134.047 123.844 133.674L126.081 133.301C129.189 132.804 131.177 132.059 132.047 131.064C132.917 129.946 133.352 128.081 133.352 125.471V62.8288C133.352 60.5916 132.98 59.1001 132.234 58.3543C131.612 57.4843 130.432 56.925 128.692 56.6764L124.776 56.1171C123.161 55.9928 122.353 55.3092 122.353 54.0663C122.353 53.072 123.347 52.3884 125.336 52.0155C129.189 51.3941 132.296 50.3998 134.657 49.0326C137.019 47.6654 139.318 45.9874 141.556 43.9988C142.674 42.8802 143.606 42.3209 144.352 42.3209C145.471 42.3209 146.03 43.0666 146.03 44.5581V125.471C146.03 128.081 146.403 129.946 147.149 131.064C147.894 132.183 149.324 132.866 151.437 133.115L156.098 133.674C157.465 133.923 158.148 134.607 158.148 135.725C158.148 137.217 157.216 137.962 155.352 137.962H124.217Z" fill="black"/>
<path d="M162.932 137.962C161.44 137.962 160.694 137.279 160.694 135.912C160.694 134.669 161.378 133.923 162.745 133.674L165.355 133.301C167.965 132.929 169.892 132.183 171.135 131.064C172.378 129.946 172.999 128.081 172.999 125.471V18.6436C172.999 16.4063 172.626 14.8527 171.881 13.9827C171.259 13.1126 170.078 12.6155 168.338 12.4912L164.05 11.9319C162.683 11.6833 161.999 10.9376 161.999 9.69465C161.999 8.45175 162.683 7.706 164.05 7.45742C167.53 6.71168 170.513 5.84164 172.999 4.84732C175.485 3.85299 177.536 2.85867 179.152 1.86435C181.14 0.621451 182.632 0 183.626 0C184.993 0 185.677 0.994322 185.677 2.98296V125.471C185.677 128.081 186.05 129.946 186.795 131.064C187.665 132.059 189.405 132.742 192.016 133.115L196.304 133.674C197.671 133.923 198.354 134.669 198.354 135.912C198.354 137.279 197.609 137.962 196.117 137.962H162.932Z" fill="black"/>
<path d="M202.964 137.962C201.473 137.962 200.727 137.279 200.727 135.912C200.727 134.669 201.411 133.923 202.778 133.674L205.388 133.301C207.998 132.929 209.925 132.183 211.167 131.064C212.41 129.946 213.032 128.081 213.032 125.471V18.6436C213.032 16.4063 212.659 14.8527 211.913 13.9827C211.292 13.1126 210.111 12.6155 208.371 12.4912L204.083 11.9319C202.716 11.6833 202.032 10.9376 202.032 9.69465C202.032 8.45175 202.716 7.706 204.083 7.45742C207.563 6.71168 210.546 5.84164 213.032 4.84732C215.518 3.85299 217.568 2.85867 219.184 1.86435C221.173 0.621451 222.664 0 223.659 0C225.026 0 225.709 0.994322 225.709 2.98296V125.471C225.709 128.081 226.082 129.946 226.828 131.064C227.698 132.059 229.438 132.742 232.048 133.115L236.336 133.674C237.703 133.923 238.387 134.669 238.387 135.912C238.387 137.279 237.641 137.962 236.15 137.962H202.964Z" fill="black"/>
<path d="M260.522 25.1688C257.912 25.1688 255.675 24.2366 253.81 22.3723C252.07 20.5079 251.2 18.1464 251.2 15.2877C251.2 12.429 252.07 10.1297 253.81 8.38959C255.675 6.52524 257.912 5.59306 260.522 5.59306C263.132 5.59306 265.307 6.52524 267.047 8.38959C268.787 10.1297 269.657 12.429 269.657 15.2877C269.657 18.1464 268.787 20.5079 267.047 22.3723C265.307 24.2366 263.132 25.1688 260.522 25.1688ZM244.861 137.962C242.997 137.962 242.065 137.279 242.065 135.912C242.065 134.793 242.873 134.047 244.488 133.674L246.726 133.301C249.833 132.804 251.822 132.059 252.692 131.064C253.562 129.946 253.997 128.081 253.997 125.471V62.8288C253.997 60.5916 253.624 59.1001 252.878 58.3543C252.257 57.4843 251.076 56.925 249.336 56.6764L245.421 56.1171C243.805 55.9928 242.997 55.3092 242.997 54.0663C242.997 53.072 243.991 52.3884 245.98 52.0155C249.833 51.3941 252.94 50.3998 255.302 49.0326C257.663 47.6654 259.963 45.9874 262.2 43.9988C263.318 42.8802 264.251 42.3209 264.996 42.3209C266.115 42.3209 266.674 43.0666 266.674 44.5581V125.471C266.674 128.081 267.047 129.946 267.793 131.064C268.539 132.183 269.968 132.866 272.081 133.115L276.742 133.674C278.109 133.923 278.793 134.607 278.793 135.725C278.793 137.217 277.86 137.962 275.996 137.962H244.861Z" fill="black"/>
<path d="M317.694 139.64C311.355 139.64 305.637 137.527 300.541 133.301C295.57 128.951 291.593 123.048 288.61 115.59C285.627 108.133 284.135 99.8052 284.135 90.6077C284.135 81.4102 285.627 73.1449 288.61 65.8118C291.593 58.4786 295.632 52.637 300.728 48.2868C305.824 43.9367 311.479 41.7616 317.694 41.7616C324.032 41.7616 329.688 43.9367 334.659 48.2868C339.755 52.637 343.795 58.4786 346.777 65.8118C349.76 73.1449 351.252 81.4102 351.252 90.6077C351.252 99.8052 349.76 108.133 346.777 115.59C343.919 123.048 339.942 128.951 334.846 133.301C329.75 137.527 324.032 139.64 317.694 139.64ZM317.694 134.979C330.62 134.979 337.083 120.189 337.083 90.6077C337.083 61.1509 330.62 46.4225 317.694 46.4225C304.767 46.4225 298.304 61.1509 298.304 90.6077C298.304 120.189 304.767 134.979 317.694 134.979Z" fill="black"/>
<path d="M360.612 137.962C358.747 137.962 357.815 137.279 357.815 135.912C357.815 134.793 358.623 134.047 360.239 133.674L362.476 133.301C365.086 132.804 366.764 132.059 367.51 131.064C368.38 129.946 368.815 128.081 368.815 125.471V62.8288C368.815 60.5916 368.442 59.1001 367.696 58.3543C367.075 57.4843 365.894 56.925 364.154 56.6764L360.239 56.1171C358.623 55.9928 357.815 55.3092 357.815 54.0663C357.815 53.072 358.809 52.3884 360.798 52.0155C364.651 51.3941 367.572 50.3998 369.561 49.0326C371.673 47.6654 373.849 45.9874 376.086 43.9988C377.204 42.8802 378.137 42.3209 378.882 42.3209C380.001 42.3209 380.56 43.0666 380.56 44.5581V52.9477C380.56 54.0663 380.933 54.8121 381.679 55.1849C382.549 55.4335 383.481 55.0606 384.475 54.0663C389.447 49.3433 393.797 46.1117 397.526 44.3717C401.379 42.6316 405.418 41.7616 409.644 41.7616C415.237 41.7616 419.712 43.7502 423.068 47.7275C426.423 51.5805 428.101 57.2979 428.101 64.8796V125.471C428.101 128.081 428.474 129.946 429.22 131.064C430.09 132.059 431.83 132.742 434.44 133.115L438.542 133.674C439.909 133.923 440.592 134.669 440.592 135.912C440.592 137.279 439.847 137.962 438.355 137.962H407.034C405.294 137.962 404.424 137.279 404.424 135.912C404.424 134.669 405.108 133.923 406.475 133.674L409.085 133.301C411.695 132.929 413.373 132.183 414.119 131.064C414.989 129.946 415.424 128.081 415.424 125.471V66.9304C415.424 60.8402 414.305 56.5521 412.068 54.0663C409.831 51.5805 406.661 50.3376 402.56 50.3376C398.582 50.3376 394.978 51.5184 391.746 53.8799C388.639 56.1171 386.153 59.1622 384.289 63.0152C382.425 66.7439 381.492 70.9077 381.492 75.5064V125.471C381.492 128.081 381.865 129.946 382.611 131.064C383.481 132.183 385.221 132.866 387.831 133.115L392.865 133.674C394.232 133.923 394.916 134.607 394.916 135.725C394.916 137.217 393.984 137.962 392.119 137.962H360.612Z" fill="black"/>
<path d="M531.135 136.098C530.637 136.098 530.078 135.912 529.457 135.539C528.835 135.166 528.4 134.358 528.152 133.115L500 18.83C499.876 17.96 499.503 17.5871 498.881 17.7114C498.26 17.7114 497.949 18.1464 497.949 19.0164L494.22 121.929C494.096 125.409 494.655 128.081 495.898 129.946C497.141 131.686 499.316 132.804 502.424 133.301L504.847 133.674C506.463 133.799 507.271 134.544 507.271 135.912C507.271 137.279 506.339 137.962 504.474 137.962H477.814C475.95 137.962 475.018 137.279 475.018 135.912C475.018 134.544 475.825 133.799 477.441 133.674L479.865 133.301C483.096 132.804 485.271 131.686 486.39 129.946C487.633 128.081 488.317 125.409 488.441 121.929L492.17 16.0335C492.294 13.4234 491.921 11.6833 491.051 10.8133C490.181 9.94323 488.317 9.25963 485.458 8.76247L481.17 8.01673C479.554 7.64385 478.746 6.89811 478.746 5.7795C478.746 4.4123 479.678 3.72871 481.543 3.72871H503.915C507.768 3.72871 510.13 5.59306 511 9.32177L533.558 102.353C533.807 103.223 534.18 103.658 534.677 103.658C535.298 103.658 535.671 103.223 535.796 102.353L559.286 8.38959C560.032 5.28234 562.021 3.72871 565.252 3.72871H587.252C589.116 3.72871 590.048 4.4123 590.048 5.7795C590.048 6.89811 589.24 7.64385 587.625 8.01673L583.337 8.76247C580.727 9.25963 578.986 9.94323 578.116 10.8133C577.246 11.6833 576.874 13.4234 576.998 16.0335L580.727 125.658C580.851 128.268 581.286 130.008 582.032 130.878C582.777 131.748 584.455 132.431 587.065 132.929L591.353 133.674C592.969 134.047 593.777 134.793 593.777 135.912C593.777 137.279 592.845 137.962 590.981 137.962H557.236C555.371 137.962 554.439 137.279 554.439 135.912C554.439 134.793 555.247 134.047 556.863 133.674L561.151 132.929C563.761 132.431 565.501 131.748 566.371 130.878C567.241 130.008 567.614 128.268 567.49 125.658L564.32 19.0164C564.32 18.1464 564.01 17.7114 563.388 17.7114C562.891 17.5871 562.518 17.8978 562.269 18.6436L533.931 133.115C533.683 134.358 533.248 135.166 532.626 135.539C532.129 135.912 531.632 136.098 531.135 136.098Z" fill="black"/>
<path d="M614.895 25.1688C612.285 25.1688 610.048 24.2366 608.184 22.3723C606.443 20.5079 605.573 18.1464 605.573 15.2877C605.573 12.429 606.443 10.1297 608.184 8.38959C610.048 6.52524 612.285 5.59306 614.895 5.59306C617.505 5.59306 619.68 6.52524 621.42 8.38959C623.161 10.1297 624.031 12.429 624.031 15.2877C624.031 18.1464 623.161 20.5079 621.42 22.3723C619.68 24.2366 617.505 25.1688 614.895 25.1688ZM599.235 137.962C597.37 137.962 596.438 137.279 596.438 135.912C596.438 134.793 597.246 134.047 598.862 133.674L601.099 133.301C604.206 132.804 606.195 132.059 607.065 131.064C607.935 129.946 608.37 128.081 608.37 125.471V62.8288C608.37 60.5916 607.997 59.1001 607.251 58.3543C606.63 57.4843 605.449 56.925 603.709 56.6764L599.794 56.1171C598.178 55.9928 597.37 55.3092 597.37 54.0663C597.37 53.072 598.365 52.3884 600.353 52.0155C604.206 51.3941 607.313 50.3998 609.675 49.0326C612.037 47.6654 614.336 45.9874 616.573 43.9988C617.692 42.8802 618.624 42.3209 619.37 42.3209C620.488 42.3209 621.048 43.0666 621.048 44.5581V125.471C621.048 128.081 621.42 129.946 622.166 131.064C622.912 132.183 624.341 132.866 626.454 133.115L631.115 133.674C632.482 133.923 633.166 134.607 633.166 135.725C633.166 137.217 632.234 137.962 630.369 137.962H599.235Z" fill="black"/>
<path d="M639.814 137.962C637.949 137.962 637.017 137.279 637.017 135.912C637.017 134.793 637.825 134.047 639.441 133.674L641.678 133.301C644.288 132.804 645.966 132.059 646.712 131.064C647.582 129.946 648.017 128.081 648.017 125.471V62.8288C648.017 60.5916 647.644 59.1001 646.898 58.3543C646.277 57.4843 645.096 56.925 643.356 56.6764L639.441 56.1171C637.825 55.9928 637.017 55.3092 637.017 54.0663C637.017 53.072 638.011 52.3884 640 52.0155C643.853 51.3941 646.774 50.3998 648.762 49.0326C650.875 47.6654 653.05 45.9874 655.288 43.9988C656.406 42.8802 657.338 42.3209 658.084 42.3209C659.203 42.3209 659.762 43.0666 659.762 44.5581V52.9477C659.762 54.0663 660.135 54.8121 660.881 55.1849C661.751 55.4335 662.683 55.0606 663.677 54.0663C668.649 49.3433 672.999 46.1117 676.728 44.3717C680.581 42.6316 684.62 41.7616 688.846 41.7616C694.439 41.7616 698.914 43.7502 702.269 47.7275C705.625 51.5805 707.303 57.2979 707.303 64.8796V125.471C707.303 128.081 707.676 129.946 708.422 131.064C709.292 132.059 711.032 132.742 713.642 133.115L717.744 133.674C719.111 133.923 719.794 134.669 719.794 135.912C719.794 137.279 719.049 137.962 717.557 137.962H686.236C684.496 137.962 683.626 137.279 683.626 135.912C683.626 134.669 684.31 133.923 685.677 133.674L688.287 133.301C690.897 132.929 692.575 132.183 693.321 131.064C694.191 129.946 694.626 128.081 694.626 125.471V66.9304C694.626 60.8402 693.507 56.5521 691.27 54.0663C689.033 51.5805 685.863 50.3376 681.762 50.3376C677.784 50.3376 674.18 51.5184 670.948 53.8799C667.841 56.1171 665.355 59.1622 663.491 63.0152C661.626 66.7439 660.694 70.9077 660.694 75.5064V125.471C660.694 128.081 661.067 129.946 661.813 131.064C662.683 132.183 664.423 132.866 667.033 133.115L672.067 133.674C673.434 133.923 674.118 134.607 674.118 135.725C674.118 137.217 673.186 137.962 671.321 137.962H639.814Z" fill="black"/>
<path d="M754.607 139.64C749.138 139.64 744.229 137.776 739.878 134.047C735.653 130.194 732.359 124.912 729.997 118.2C727.636 111.364 726.455 103.472 726.455 94.5229C726.455 84.0825 728.071 74.9471 731.302 67.1168C734.534 59.1622 739.008 52.9477 744.726 48.4733C750.443 43.9988 756.906 41.7616 764.115 41.7616C765.855 41.7616 767.595 41.948 769.335 42.3209C771.075 42.5695 772.753 43.0666 774.369 43.8124C776.358 44.8067 777.352 44.3717 777.352 42.5073V18.6436C777.352 16.4063 776.979 14.8527 776.233 13.9827C775.612 13.1126 774.431 12.6155 772.691 12.4912L767.844 11.9319C766.477 11.6833 765.793 10.9376 765.793 9.69465C765.793 8.45175 766.477 7.706 767.844 7.45742C771.821 6.71168 774.99 5.84164 777.352 4.84732C779.838 3.85299 781.889 2.85867 783.504 1.86435C785.493 0.621451 786.984 0 787.979 0C789.346 0 790.03 0.994322 790.03 2.98296V120.251C790.03 125.471 791.335 128.081 793.945 128.081C795.561 128.081 797.052 127.025 798.419 124.912C799.786 122.675 800.47 118.946 800.47 113.726C800.47 111.737 801.278 110.743 802.894 110.743C804.385 110.743 805.131 111.799 805.131 113.912C805.131 122.985 803.577 129.573 800.47 133.674C797.363 137.652 793.82 139.64 789.843 139.64C786.239 139.64 783.504 138.46 781.64 136.098C779.776 133.612 778.533 130.691 777.911 127.336C777.787 126.341 777.352 125.844 776.606 125.844C775.861 125.72 775.177 126.155 774.555 127.149C771.075 131.996 767.906 135.29 765.047 137.03C762.189 138.77 758.708 139.64 754.607 139.64ZM758.708 131.064C761.94 131.064 764.923 130.008 767.657 127.895C770.516 125.658 772.815 122.675 774.555 118.946C776.42 115.217 777.352 111.053 777.352 106.455V64.5067C777.352 58.9137 776.047 54.5013 773.437 51.2698C770.951 48.0382 767.657 46.4225 763.556 46.4225C756.596 46.4225 750.94 50.524 746.59 58.7272C742.364 66.8061 740.251 77.8679 740.251 91.9128C740.251 104.715 741.867 114.471 745.099 121.183C748.454 127.771 752.991 131.064 758.708 131.064Z" fill="black"/>
<path d="M829.56 139.64C826.701 139.64 823.656 139.267 820.424 138.522C817.193 137.9 814.583 137.092 812.594 136.098C811.476 135.477 810.916 134.42 810.916 132.929L810.357 112.048C810.357 109.935 811.165 108.878 812.781 108.878C814.148 108.878 815.08 109.873 815.577 111.861C817.69 120.686 820.238 126.714 823.221 129.946C826.328 133.177 830.057 134.793 834.407 134.793C838.012 134.793 840.994 133.426 843.356 130.691C845.718 127.833 846.898 123.918 846.898 118.946C846.898 113.974 845.531 109.562 842.797 105.709C840.062 101.856 835.464 97.6301 829 93.0314C822.537 88.6812 817.814 84.331 814.831 79.9809C811.848 75.5064 810.357 70.6591 810.357 65.4389C810.357 58.3543 812.843 52.637 817.814 48.2868C822.786 43.9367 829.373 41.7616 837.577 41.7616C840.062 41.7616 842.486 42.0723 844.848 42.6937C847.209 43.1909 849.322 44.0609 851.186 45.3039C852.305 46.0496 852.864 47.0439 852.864 48.2868L853.237 68.7947C853.237 70.6591 852.491 71.5913 851 71.5913C850.13 71.5913 849.508 71.3427 849.136 70.8455C848.763 70.2241 848.452 69.4783 848.203 68.6083C845.718 60.5294 843.232 54.9364 840.746 51.8291C838.26 48.5975 835.215 46.9818 831.611 46.9818C828.379 46.9818 825.707 48.1004 823.594 50.3376C821.481 52.5748 820.424 55.3714 820.424 58.7272C820.424 63.0774 821.73 66.8682 824.34 70.0998C826.95 73.3313 831.673 77.3086 838.509 82.0317C844.723 86.5061 849.384 91.3535 852.491 96.5736C855.723 101.67 857.339 107.263 857.339 113.353C857.339 121.307 854.791 127.708 849.695 132.556C844.599 137.279 837.887 139.64 829.56 139.64Z" fill="black"/>
</g>
<defs>
<clipPath id="clip0_3139_551">
<rect width="857" height="140" fill="white"/>
</clipPath>
</defs>
</svg>
